<svg width="126" height="38" viewBox="0 0 126 38" fill="none" xmlns="http://www.w3.org/2000/svg">
<rect x="0.584961" y="0.966064" width="10.6561" height="10.6561" fill="#9C9C9C"/>
<rect x="0.584961" y="13.674" width="10.6561" height="10.6561" fill="#9C9C9C"/>
<rect x="0.584961" y="26.3778" width="10.6561" height="10.6561" fill="#9C9C9C"/>
<rect x="13.291" y="0.966064" width="10.6561" height="10.6561" fill="#9C9C9C"/>
<rect x="13.291" y="13.674" width="10.6561" height="10.6561" fill="#9C9C9C"/>
<rect x="13.291" y="26.3778" width="10.6561" height="10.6561" fill="#9C9C9C"/>
<rect x="25.9956" y="0.966064" width="10.6561" height="10.6561" fill="#9C9C9C"/>
<rect x="25.9956" y="13.674" width="10.6561" height="10.6561" fill="#9C9C9C"/>
<rect x="25.9956" y="26.3778" width="10.6561" height="10.6561" fill="#9C9C9C"/>
<path d="M49.6498 17.4775C47.6426 17.4775 46.0675 16.8042 44.9247 15.4575C43.7819 14.0962 43.2104 12.1274 43.2104 9.55115C43.2104 8.26302 43.357 7.12859 43.65 6.14785C43.943 5.16712 44.3679 4.34008 44.9247 3.66674C45.4814 2.9934 46.1554 2.4884 46.9466 2.15173C47.7524 1.80042 48.6535 1.62477 49.6498 1.62477C50.9831 1.62477 52.0966 1.91752 52.9904 2.50304C53.8988 3.08855 54.6094 3.95218 55.1222 5.09393L53.0343 6.23568C52.7706 5.50379 52.3604 4.92559 51.8036 4.5011C51.2615 4.06196 50.5436 3.8424 49.6498 3.8424C48.463 3.8424 47.5327 4.24494 46.8587 5.05002C46.1847 5.8551 45.8477 6.96757 45.8477 8.38744V10.7149C45.8477 12.1347 46.1847 13.2472 46.8587 14.0523C47.5327 14.8574 48.463 15.2599 49.6498 15.2599C50.5729 15.2599 51.3201 15.0257 51.8915 14.5573C52.4776 14.0742 52.9098 13.4594 53.1882 12.7129L55.1881 13.9205C54.6753 15.033 53.9574 15.904 53.0343 16.5334C52.1113 17.1628 50.9831 17.4775 49.6498 17.4775Z" fill="#9C9C9C"/>
<path d="M65.6887 17.214C65.0587 17.214 64.5752 17.0384 64.2382 16.6871C63.9012 16.3211 63.6961 15.86 63.6228 15.3038H63.5129C63.2932 16.0211 62.8902 16.5627 62.3042 16.9286C61.7181 17.2946 61.0075 17.4775 60.1724 17.4775C58.9856 17.4775 58.0699 17.1701 57.4252 16.5553C56.7952 15.9406 56.4802 15.1135 56.4802 14.0742C56.4802 12.9325 56.8904 12.0762 57.7109 11.5053C58.546 10.9344 59.7621 10.649 61.3591 10.649H63.425V9.68289C63.425 8.98027 63.2346 8.43867 62.8536 8.05809C62.4727 7.6775 61.8793 7.48721 61.0734 7.48721C60.3995 7.48721 59.85 7.63359 59.4251 7.92635C59.0002 8.2191 58.6413 8.59237 58.3482 9.04614L56.9197 7.75069C57.3007 7.10663 57.8354 6.57967 58.5241 6.16981C59.2127 5.74531 60.1138 5.53306 61.2273 5.53306C62.7071 5.53306 63.8426 5.87705 64.6338 6.56503C65.425 7.25301 65.8206 8.24106 65.8206 9.52919V15.2599H67.0293V17.214H65.6887ZM60.8537 15.6551C61.6009 15.6551 62.2163 15.4941 62.6998 15.1721C63.1833 14.8354 63.425 14.3889 63.425 13.8327V12.186H61.4031C59.7475 12.186 58.9197 12.6983 58.9197 13.7229V14.1181C58.9197 14.6305 59.0882 15.0184 59.4251 15.2819C59.7768 15.5307 60.253 15.6551 60.8537 15.6551Z" fill="#9C9C9C"/>
<path d="M69.0475 17.214V5.79654H71.443V7.99222H71.5529C71.7141 7.4067 72.051 6.89438 72.5639 6.45525C73.0767 6.01611 73.7873 5.79654 74.6957 5.79654H75.333V8.102H74.388C73.4356 8.102 72.703 8.2557 72.1902 8.56309C71.6921 8.87049 71.443 9.32426 71.443 9.92441V17.214H69.0475Z" fill="#9C9C9C"/>
<path d="M84.2103 15.3258H84.1004C83.8514 15.9991 83.4411 16.5261 82.8697 16.9066C82.3129 17.2872 81.6536 17.4775 80.8917 17.4775C79.4412 17.4775 78.3204 16.9579 77.5292 15.9186C76.738 14.8647 76.3424 13.3936 76.3424 11.5053C76.3424 9.61702 76.738 8.15323 77.5292 7.11395C78.3204 6.06003 79.4412 5.53306 80.8917 5.53306C81.6536 5.53306 82.3129 5.72336 82.8697 6.10394C83.4411 6.46988 83.8514 6.99685 84.1004 7.68482H84.2103V0.966064H86.6059V17.214H84.2103V15.3258ZM81.617 15.4136C82.3496 15.4136 82.9649 15.2379 83.4631 14.8866C83.9613 14.5207 84.2103 14.045 84.2103 13.4594V9.55115C84.2103 8.96563 83.9613 8.49722 83.4631 8.14591C82.9649 7.77997 82.3496 7.597 81.617 7.597C80.7819 7.597 80.1152 7.8678 79.6171 8.40939C79.1189 8.93636 78.8698 9.63897 78.8698 10.5172V12.4933C78.8698 13.3716 79.1189 14.0815 79.6171 14.6231C80.1152 15.1501 80.7819 15.4136 81.617 15.4136Z" fill="#9C9C9C"/>
<path d="M48.0235 28.294L46.3312 25.0444H46.2653V36.7693H43.8917V21.4435H46.6609L51.6718 29.9188L53.364 33.1684H53.4299V21.4435H55.8035V36.7693H53.0343L48.0235 28.294Z" fill="#9C9C9C"/>
<path d="M63.5586 37.0327C62.7381 37.0327 62.0055 36.8937 61.3609 36.6156C60.7162 36.3374 60.1668 35.9422 59.7126 35.4299C59.2584 34.9029 58.9067 34.2735 58.6576 33.5416C58.4232 32.7951 58.306 31.9681 58.306 31.0605C58.306 30.153 58.4232 29.3332 58.6576 28.6014C58.9067 27.8548 59.2584 27.2254 59.7126 26.7131C60.1668 26.1861 60.7162 25.7836 61.3609 25.5055C62.0055 25.2273 62.7381 25.0883 63.5586 25.0883C64.3937 25.0883 65.1263 25.2347 65.7563 25.5274C66.401 25.8202 66.9358 26.23 67.3607 26.757C67.7856 27.2693 68.1006 27.8695 68.3057 28.5574C68.5255 29.2454 68.6354 29.9846 68.6354 30.7751V31.6753H60.7895V32.0486C60.7895 32.9268 61.0459 33.6514 61.5587 34.2223C62.0861 34.7785 62.8334 35.0566 63.8004 35.0566C64.5036 35.0566 65.097 34.9029 65.5805 34.5955C66.064 34.2881 66.4743 33.871 66.8113 33.344L68.2178 34.7273C67.7929 35.4299 67.1776 35.9935 66.3717 36.4179C65.5659 36.8278 64.6282 37.0327 63.5586 37.0327ZM63.5586 26.9546C63.1484 26.9546 62.7674 27.0278 62.4158 27.1742C62.0788 27.3205 61.7858 27.5255 61.5367 27.789C61.3023 28.0524 61.1191 28.3671 60.9873 28.7331C60.8554 29.099 60.7895 29.5016 60.7895 29.9407V30.0944H66.108V29.8748C66.108 28.9966 65.8809 28.294 65.4267 27.767C64.9725 27.2254 64.3498 26.9546 63.5586 26.9546Z" fill="#9C9C9C"/>
<path d="M74.1224 36.7693C73.2872 36.7693 72.6572 36.557 72.2323 36.1325C71.8074 35.6934 71.595 35.0786 71.595 34.2881V27.3059H69.8148V25.3518H70.7818C71.1774 25.3518 71.4484 25.2639 71.595 25.0883C71.7561 24.9126 71.8367 24.6272 71.8367 24.232V22.2339H73.9905V25.3518H76.386V27.3059H73.9905V34.8151H76.2102V36.7693H74.1224Z" fill="#9C9C9C"/>
<path d="M77.512 25.3518H79.8416L81.0064 30.1383L82.0394 34.4638H82.1053L83.2921 30.1383L84.6767 25.3518H86.8304L88.237 30.1383L89.4458 34.4638H89.5117L90.5226 30.1383L91.7094 25.3518H93.9291L90.8523 36.7693H88.1491L86.6546 31.5655L85.7316 28.3598H85.6876L84.7865 31.5655L83.2701 36.7693H80.6328L77.512 25.3518Z" fill="#9C9C9C"/>
<path d="M100.215 37.0327C99.4233 37.0327 98.6981 36.8937 98.0387 36.6156C97.3941 36.3374 96.8446 35.9422 96.3904 35.4299C95.9362 34.9029 95.5846 34.2735 95.3355 33.5416C95.0864 32.7951 94.9619 31.9681 94.9619 31.0605C94.9619 30.153 95.0864 29.3332 95.3355 28.6014C95.5846 27.8548 95.9362 27.2254 96.3904 26.7131C96.8446 26.1861 97.3941 25.7836 98.0387 25.5055C98.6981 25.2273 99.4233 25.0883 100.215 25.0883C101.006 25.0883 101.724 25.2273 102.368 25.5055C103.028 25.7836 103.584 26.1861 104.039 26.7131C104.493 27.2254 104.844 27.8548 105.093 28.6014C105.343 29.3332 105.467 30.153 105.467 31.0605C105.467 31.9681 105.343 32.7951 105.093 33.5416C104.844 34.2735 104.493 34.9029 104.039 35.4299C103.584 35.9422 103.028 36.3374 102.368 36.6156C101.724 36.8937 101.006 37.0327 100.215 37.0327ZM100.215 35.0566C101.035 35.0566 101.694 34.8078 102.192 34.3101C102.691 33.7978 102.94 33.0366 102.94 32.0266V30.0944C102.94 29.0844 102.691 28.3305 102.192 27.8329C101.694 27.3205 101.035 27.0644 100.215 27.0644C99.394 27.0644 98.7347 27.3205 98.2365 27.8329C97.7384 28.3305 97.4893 29.0844 97.4893 30.0944V32.0266C97.4893 33.0366 97.7384 33.7978 98.2365 34.3101C98.7347 34.8078 99.394 35.0566 100.215 35.0566Z" fill="#9C9C9C"/>
<path d="M107.807 36.7693V25.3518H110.202V27.5474H110.312C110.473 26.9619 110.81 26.4496 111.323 26.0105C111.836 25.5713 112.546 25.3518 113.455 25.3518H114.092V27.6572H113.147C112.195 27.6572 111.462 27.8109 110.949 28.1183C110.451 28.4257 110.202 28.8795 110.202 29.4796V36.7693H107.807Z" fill="#9C9C9C"/>
<path d="M115.89 20.5213H118.286V30.4896H118.396L119.978 28.4477L122.725 25.3518H125.516L121.516 29.7651L126 36.7693H123.143L119.868 31.324L118.286 33.0366V36.7693H115.89V20.5213Z" fill="#9C9C9C"/>
</svg>
