<svg width="164" height="30" viewBox="0 0 164 30" fill="none" xmlns="http://www.w3.org/2000/svg">
<path d="M7.08956 21.6093H3.54475L0 25.154V28.6989H3.54475L7.08956 25.154V21.6093ZM14.1791 21.6093H17.7239L21.2687 25.1541V28.6989H17.7239L14.1791 25.154L10.6343 28.6989H7.08956V25.154L10.6343 21.6092H14.1791V21.6093ZM28.3582 28.6989H24.8134L21.2687 25.154V21.6092H24.8134L28.3582 25.154V28.6989ZM21.2687 14.5197V10.975L24.8134 7.43017H28.3582V10.975L24.8134 14.5197L28.3582 18.0645V21.6093H24.8134L21.2687 18.0645V14.5197ZM14.1791 18.0645L10.6344 21.6093H7.08963V18.0645L10.6344 14.5197L7.08963 10.975V7.43017H10.6344L14.1791 10.975L17.7239 7.43017H21.2687V10.975L17.7239 14.5197L21.2687 18.0645V21.6093H17.7239L14.1791 18.0645ZM21.2687 3.88542L24.8134 0.340673H28.3582V3.88542L24.8134 7.43023H21.2687V3.88542ZM14.1791 7.43017H10.6344L7.08963 3.88535V0.340609H10.6344L14.1791 3.88535L17.7239 0.340609H21.2687V3.88535L17.7239 7.43017H14.1791ZM3.54475 7.43017L0 3.88542V0.340673H3.54475L7.08956 3.88542V7.43023H3.54475V7.43017ZM7.08956 14.5197V18.0645L3.54475 21.6093H0V18.0645L3.54475 14.5197L0 10.975V7.43017H3.54475L7.08956 10.975V14.5197Z" fill="#6D6D6D"/>
<path d="M55.8211 23.4216L53.8561 17.5265H45.7152L43.8126 23.4216H40.2256L47.6491 1.65024H52.0782L59.5017 23.4216H55.8211ZM49.8636 4.89411H49.7077L46.5574 14.501H52.9827L49.8636 4.89411Z" fill="#6D6D6D"/>
<path d="M62.1563 23.4216V7.20225H65.5562V9.88469H65.7121C66.0656 9.01134 66.5959 8.28354 67.3029 7.70131C68.0307 7.11908 69.0184 6.82796 70.266 6.82796C71.9296 6.82796 73.2188 7.379 74.1337 8.48109C75.0695 9.56238 75.5373 11.1115 75.5373 13.1286V23.4216H72.1375V13.5652C72.1375 11.0284 71.1186 9.75992 69.0808 9.75992C68.6441 9.75992 68.2074 9.8223 67.7707 9.94707C67.3549 10.051 66.9806 10.2174 66.6479 10.4461C66.3152 10.6749 66.0448 10.966 65.8369 11.3195C65.6497 11.673 65.5562 12.0889 65.5562 12.5671V23.4216H62.1563Z" fill="#6D6D6D"/>
<path d="M89.488 7.20225H92.7631L85.9322 26.6343C85.7451 27.175 85.5268 27.6324 85.2772 28.0067C85.0485 28.4018 84.7678 28.7137 84.4351 28.9425C84.1232 29.192 83.7385 29.3687 83.281 29.4727C82.8235 29.5975 82.2829 29.6598 81.6591 29.6598H79.694V26.8838H82.4388L83.3746 24.139L77.4795 7.20225H80.8793L84.1232 16.7467L85.0589 20.2713H85.2149L86.2442 16.7467L89.488 7.20225Z" fill="#6D6D6D"/>
<path d="M95.3417 1.65024H104.98C106.789 1.65024 108.203 2.15969 109.222 3.1786C110.261 4.19751 110.781 5.55952 110.781 7.26463C110.781 8.0756 110.667 8.7722 110.438 9.35444C110.209 9.91588 109.918 10.3837 109.565 10.758C109.211 11.1115 108.806 11.3819 108.348 11.569C107.891 11.7354 107.444 11.8393 107.007 11.8809V12.0681C107.444 12.0889 107.922 12.1928 108.442 12.38C108.983 12.5671 109.482 12.8686 109.939 13.2845C110.397 13.6796 110.781 14.1995 111.093 14.8441C111.405 15.4679 111.561 16.2373 111.561 17.1522C111.561 18.0256 111.416 18.8469 111.124 19.6163C110.854 20.3857 110.469 21.0511 109.97 21.6125C109.471 22.174 108.879 22.6211 108.192 22.9538C107.506 23.2657 106.758 23.4216 105.947 23.4216H95.3417V1.65024ZM98.8663 20.3961H104.917C105.832 20.3961 106.55 20.157 107.07 19.6787C107.589 19.2004 107.849 18.5142 107.849 17.6201V16.5596C107.849 15.6654 107.589 14.9792 107.07 14.501C106.55 14.0227 105.832 13.7836 104.917 13.7836H98.8663V20.3961ZM98.8663 10.8516H104.325C105.198 10.8516 105.874 10.6333 106.352 10.1966C106.83 9.73913 107.07 9.09451 107.07 8.26275V7.26463C107.07 6.43287 106.83 5.79865 106.352 5.36198C105.874 4.90451 105.198 4.67577 104.325 4.67577H98.8663V10.8516Z" fill="#6D6D6D"/>
<path d="M127.069 23.4216C126.175 23.4216 125.488 23.1721 125.01 22.673C124.532 22.1532 124.241 21.4982 124.137 20.708H123.981C123.669 21.7269 123.097 22.4963 122.265 23.0161C121.433 23.536 120.425 23.7959 119.24 23.7959C117.555 23.7959 116.256 23.3592 115.341 22.4859C114.447 21.6125 114 20.4377 114 18.9613C114 17.3394 114.582 16.1229 115.746 15.3119C116.932 14.501 118.657 14.0955 120.924 14.0955H123.856V12.7231C123.856 11.725 123.586 10.9556 123.045 10.4149C122.504 9.87429 121.662 9.60397 120.519 9.60397C119.562 9.60397 118.782 9.81191 118.179 10.2278C117.576 10.6437 117.067 11.1739 116.651 11.8185L114.623 9.97826C115.164 9.06332 115.923 8.31473 116.9 7.7325C117.878 7.12947 119.157 6.82796 120.737 6.82796C122.837 6.82796 124.449 7.31662 125.572 8.29394C126.694 9.27126 127.256 10.6749 127.256 12.5047V20.6456H128.971V23.4216H127.069ZM120.207 21.2071C121.267 21.2071 122.14 20.9783 122.827 20.5209C123.513 20.0426 123.856 19.4084 123.856 18.6182V16.2789H120.986C118.637 16.2789 117.462 17.0067 117.462 18.4622V19.0237C117.462 19.7515 117.701 20.3025 118.179 20.6768C118.678 21.0303 119.354 21.2071 120.207 21.2071Z" fill="#6D6D6D"/>
<path d="M131.836 23.4216V7.20225H135.235V9.88469H135.391C135.745 9.01134 136.275 8.28354 136.982 7.70131C137.71 7.11908 138.698 6.82796 139.945 6.82796C141.609 6.82796 142.898 7.379 143.813 8.48109C144.749 9.56238 145.217 11.1115 145.217 13.1286V23.4216H141.817V13.5652C141.817 11.0284 140.798 9.75992 138.76 9.75992C138.323 9.75992 137.887 9.8223 137.45 9.94707C137.034 10.051 136.66 10.2174 136.327 10.4461C135.994 10.6749 135.724 10.966 135.516 11.3195C135.329 11.673 135.235 12.0889 135.235 12.5671V23.4216H131.836Z" fill="#6D6D6D"/>
<path d="M149.461 0.34021H152.861V14.501H153.017L155.263 11.6002L159.161 7.20225H163.123L157.446 13.4717L163.809 23.4216H159.754L155.107 15.6862L152.861 18.1191V23.4216H149.461V0.34021Z" fill="#6D6D6D"/>
</svg>
